<svg width="30" height="34" viewBox="0 0 30 34" fill="none" xmlns="http://www.w3.org/2000/svg">
<path d="M0.0426413 23.4408C0.505604 23.4814 0.960444 23.4976 1.40716 23.5545C3.13718 23.7738 4.83471 23.5545 6.49163 23.0834C8.83893 22.4174 11.1537 22.4499 13.5173 23.1078C15.0036 23.522 16.5631 23.6763 18.0901 23.9606C18.5936 24.0499 19.1053 24.1311 19.5845 24.3098C19.9744 24.456 20.3805 24.6753 20.6729 24.9596C21.2171 25.4957 21.1278 26.2998 20.478 26.6977C20.1125 26.917 19.6576 27.0795 19.2353 27.112C17.8058 27.2176 16.4169 26.9414 15.0361 26.6084C14.7681 26.5434 14.4757 26.5272 14.1914 26.5434C14.0777 26.5515 13.9234 26.6815 13.8828 26.7952C13.8503 26.8846 13.9234 27.0795 14.0127 27.1363C14.2564 27.2988 14.5244 27.4369 14.8006 27.5343C16.4738 28.111 18.1957 28.0866 19.9257 27.9892C22.6385 27.8348 24.8721 26.5028 27.0975 25.1302C27.4955 24.8865 27.9341 24.6753 28.3808 24.5697C28.9494 24.4398 29.4854 24.6104 29.8347 25.1383C30.1108 25.5606 30.0378 26.1211 29.6398 26.6409C29.5585 26.7465 29.4692 26.8602 29.3717 26.9414C27.5036 28.5496 25.53 30.0197 23.3695 31.1893C21.9156 31.9771 20.2749 32.2939 18.6586 32.6188C17.6271 32.83 16.5875 32.968 15.5397 33.1061C13.8909 33.3254 12.2827 33.0168 10.6989 32.5863C7.74244 31.7985 4.80222 30.9619 1.84576 30.1497C1.32594 30.0035 0.789879 29.9222 0.270062 29.776C0.156351 29.7436 0.0101527 29.5811 0.0101527 29.4755C-0.00609161 27.5343 0.00203054 25.585 0.00203054 23.6438C0.00203054 23.587 0.026397 23.5382 0.0426413 23.4408Z" fill="#8E8E8E"/>
<path d="M15.7835 19.9321C13.7855 19.9321 11.7874 19.9321 9.78128 19.9321C8.90408 19.9321 8.64417 19.6722 8.63605 18.8031C8.63605 16.9512 8.64417 15.0994 8.62793 13.2475C8.62793 12.8252 8.74976 12.5003 9.05028 12.1998C11.0402 10.2099 13.0058 8.21181 14.9876 6.21376C15.5805 5.61272 15.9785 5.61272 16.5714 6.20564C18.5451 8.20369 20.5188 10.2017 22.5006 12.1917C22.7848 12.4759 22.931 12.7846 22.9229 13.1907C22.9067 15.0669 22.9148 16.9431 22.9148 18.8275C22.9148 19.6316 22.6305 19.9158 21.8102 19.9158C19.804 19.9321 17.7897 19.9321 15.7835 19.9321ZM17.4892 12.5978C16.3277 12.5978 15.215 12.5978 14.0779 12.5978C14.0779 13.743 14.0779 14.872 14.0779 16.0091C15.2312 16.0091 16.3521 16.0091 17.4892 16.0091C17.4892 14.8639 17.4892 13.743 17.4892 12.5978Z" fill="#8E8E8E"/>
<path d="M19.7628 4.32117C19.7628 3.80947 19.7628 3.41961 19.7628 3.00538C20.5669 3.00538 21.3466 3.00538 22.1751 3.00538C22.1751 3.69576 22.2482 4.37803 22.1588 5.03592C21.9964 6.26236 22.4025 7.14768 23.3528 7.93553C24.2869 8.70713 25.0909 9.63306 25.9438 10.5021C26.293 10.8595 26.4149 11.29 26.2362 11.7692C26.0737 12.2321 25.7245 12.4921 25.2453 12.557C24.7904 12.6139 24.4493 12.4108 24.1325 12.0941C21.4685 9.43 18.8044 6.76594 16.1403 4.09375C16.0266 3.98004 15.9616 3.82572 15.8561 3.6714C15.653 3.86633 15.5393 3.9638 15.4418 4.06938C12.7696 6.74157 10.0893 9.41376 7.41714 12.0941C7.08413 12.4271 6.71052 12.6383 6.22319 12.5408C5.30538 12.3621 4.93176 11.3143 5.52468 10.5915C5.58966 10.5103 5.67088 10.4372 5.7521 10.3559C8.74918 7.35885 11.7463 4.36178 14.7514 1.35658C15.4662 0.641835 16.0916 0.641835 16.8145 1.36471C17.7729 2.33124 18.7232 3.28153 19.7628 4.32117Z" fill="#8E8E8E"/>
</svg>
